<?xml version="1.0" standalone="no"?>
<!DOCTYPE svg PUBLIC "-//W3C//DTD SVG 20010904//EN"
 "http://www.w3.org/TR/2001/REC-SVG-20010904/DTD/svg10.dtd">
<svg version="1.0" xmlns="http://www.w3.org/2000/svg"
 width="1000.000000pt" height="667.000000pt" viewBox="0 0 1000.000000 667.000000"
 preserveAspectRatio="xMidYMid meet">

<g transform="translate(0.000000,667.000000) scale(0.100000,-0.100000)"
fill="#000000" stroke="none">
<path d="M0 5533 l0 -1136 22 23 c12 12 23 35 24 49 12 101 29 144 53 137 9
-3 6 2 -6 10 -13 9 -22 26 -22 38 1 17 2 17 6 4 5 -22 20 -24 20 -3 0 8 -6 16
-14 19 -7 3 -13 20 -13 38 0 19 -8 44 -17 57 -9 14 -12 21 -6 18 13 -8 21 9
19 44 -1 20 2 25 16 21 14 -3 18 -15 19 -56 0 -38 3 -46 9 -31 8 19 9 19 9 -2
1 -13 7 -23 14 -23 8 0 11 14 9 45 -2 25 -8 45 -13 45 -5 0 -9 5 -9 10 0 6 7
10 15 10 23 0 18 27 -6 33 -13 4 -18 10 -14 17 5 9 1 10 -14 5 -25 -8 -28 3
-4 20 11 8 13 17 7 26 -5 8 -7 22 -6 32 2 10 -1 24 -5 30 -21 28 0 142 23 133
8 -3 14 -2 14 3 0 5 -11 12 -25 15 -26 7 -34 30 -14 42 6 3 8 16 5 29 -6 23
15 51 27 38 13 -12 7 -22 -8 -17 -11 5 -13 2 -9 -10 8 -20 44 -21 44 -1 0 8 3
15 6 15 3 0 12 -7 20 -15 9 -8 21 -15 27 -15 8 0 7 4 -1 12 -18 18 -15 38 6
39 9 0 12 3 6 5 -7 3 -10 14 -7 25 4 12 -1 25 -13 34 -18 13 -18 15 -2 31 16
16 17 16 24 -10 4 -16 10 -24 16 -18 14 14 -2 42 -28 48 -25 6 -31 33 -18 82
7 25 34 30 34 6 0 -8 4 -12 10 -9 5 3 10 -1 10 -9 0 -25 19 -19 26 8 7 28 -2
49 -17 41 -5 -4 -9 -1 -9 4 0 6 6 11 14 11 8 0 16 7 20 15 3 8 1 15 -5 15 -6
0 -9 10 -7 23 2 12 -3 27 -12 33 -11 10 -12 15 -2 27 7 8 10 22 6 31 -3 9 -2
16 4 16 5 0 12 -10 16 -22 5 -19 8 -20 16 -8 6 9 6 18 0 24 -13 13 -13 66 -1
66 6 0 13 -4 16 -10 8 -13 25 -13 25 0 0 20 -55 60 -75 54 -16 -5 -18 -4 -7 7
17 18 15 32 -3 25 -13 -5 -14 -2 -5 15 9 16 14 18 26 8 8 -6 18 -9 21 -5 4 4
1 11 -7 16 -8 6 -10 10 -5 10 10 0 15 17 18 63 1 17 9 21 37 17 10 -1 9 3 -5
14 -11 8 -25 16 -32 16 -6 0 -15 9 -18 20 -3 11 -11 20 -17 20 -7 0 -6 5 1 14
9 11 9 20 2 35 -17 30 -14 33 29 30 21 -2 42 0 46 4 8 7 -9 11 -39 8 -13 -2
-17 5 -17 28 0 17 4 31 9 31 6 0 7 16 4 35 -4 23 -2 35 6 35 6 0 12 8 13 18 0
9 4 -3 8 -28 l7 -45 1 43 c2 50 22 57 22 7 0 -36 13 -47 24 -19 16 42 -7 77
-44 67 -21 -6 -22 -3 -18 31 2 20 0 36 -4 36 -13 0 -9 30 5 30 6 0 4 5 -6 11
-9 6 -15 15 -11 20 8 13 34 -9 35 -30 0 -10 4 -7 10 8 5 14 7 31 4 39 -3 8 5
29 18 46 25 34 35 100 17 111 -18 11 -30 -15 -23 -50 4 -20 2 -27 -4 -20 -17
16 -24 75 -10 75 6 0 0 11 -15 24 -34 29 -35 36 -3 36 14 0 25 -4 25 -10 0 -5
4 -10 10 -10 5 0 9 6 7 13 -1 8 18 13 68 15 151 5 78 10 -173 11 l-262 1 0
-1137z m320 907 c0 -5 -4 -10 -10 -10 -5 0 -10 5 -10 10 0 6 5 10 10 10 6 0
10 -4 10 -10z m-33 -176 c-3 -3 -12 -4 -19 -1 -8 3 -5 6 6 6 11 1 17 -2 13 -5z
m-18 -83 c-15 -5 -22 6 -14 19 6 9 10 9 16 -1 5 -8 4 -15 -2 -18z m-24 -469
c-8 -8 -25 10 -19 20 4 6 9 5 15 -3 4 -7 6 -15 4 -17z m-28 -114 c-3 -7 -5 -2
-5 12 0 14 2 19 5 13 2 -7 2 -19 0 -25z m-27 -279 c0 -5 -4 -9 -10 -9 -5 0
-10 7 -10 16 0 8 5 12 10 9 6 -3 10 -10 10 -16z m-58 -21 c-7 -7 -12 -8 -12
-2 0 14 12 26 19 19 2 -3 -1 -11 -7 -17z m-52 -218 c0 -5 -4 -10 -10 -10 -5 0
-10 5 -10 10 0 6 5 10 10 10 6 0 10 -4 10 -10z m-20 -472 c0 -16 -3 -19 -11
-11 -6 6 -8 16 -5 22 11 17 16 13 16 -11z"/>
<path d="M395 6555 c0 -29 4 -45 13 -45 7 0 12 12 12 28 0 16 -6 36 -12 45
-11 15 -13 11 -13 -28z"/>
<path d="M420 6440 c0 -5 5 -10 10 -10 6 0 10 5 10 10 0 6 -4 10 -10 10 -5 0
-10 -4 -10 -10z"/>
<path d="M391 6414 c0 -11 3 -14 6 -6 3 7 2 16 -1 19 -3 4 -6 -2 -5 -13z"/>
<path d="M371 6314 c0 -11 3 -14 6 -6 3 7 2 16 -1 19 -3 4 -6 -2 -5 -13z"/>
<path d="M357 6153 c-11 -10 -8 -43 3 -43 5 0 7 7 3 16 -3 9 0 20 8 25 8 5 9
9 3 9 -6 0 -14 -3 -17 -7z"/>
<path d="M320 6040 c0 -5 5 -10 11 -10 5 0 7 5 4 10 -3 6 -8 10 -11 10 -2 0
-4 -4 -4 -10z"/>
<path d="M315 5630 c-3 -5 -2 -10 4 -10 5 0 13 5 16 10 3 6 2 10 -4 10 -5 0
-13 -4 -16 -10z"/>
<path d="M221 5444 c0 -11 3 -14 6 -6 3 7 2 16 -1 19 -3 4 -6 -2 -5 -13z"/>
<path d="M120 5213 c0 -7 5 -23 11 -36 11 -24 12 -24 30 -6 20 20 26 49 9 49
-5 0 -10 -7 -10 -15 0 -20 -10 -19 -26 3 -8 9 -14 12 -14 5z"/>
<path d="M160 5140 c0 -5 4 -10 9 -10 6 0 13 5 16 10 3 6 -1 10 -9 10 -9 0
-16 -4 -16 -10z"/>
<path d="M120 5006 c0 -8 4 -17 9 -20 5 -4 7 3 4 14 -6 23 -13 26 -13 6z"/>
<path d="M7210 4976 c0 -9 5 -16 10 -16 6 0 10 4 10 9 0 6 -4 13 -10 16 -5 3
-10 -1 -10 -9z"/>
<path d="M7686 4903 c8 -68 6 -90 -11 -123 -14 -26 -14 -29 0 -24 20 8 19 -12
-5 -63 -16 -37 -17 -43 -4 -43 16 0 14 -14 -12 -79 -17 -41 -17 -41 0 -41 12
0 12 -7 4 -37 -5 -21 -14 -42 -19 -47 -12 -13 -11 -39 1 -31 14 8 12 -22 -4
-67 -9 -24 -10 -40 -3 -47 5 -5 6 -21 2 -38 -5 -15 -9 -61 -10 -100 -2 -64 0
-73 15 -73 16 0 18 13 19 112 1 61 4 115 6 119 3 4 8 40 11 81 4 64 21 246 28
318 2 14 6 46 10 71 5 31 4 49 -3 53 -6 4 -11 29 -11 57 0 27 -4 49 -10 49 -6
0 -7 -19 -4 -47z"/>
<path d="M7380 4920 c0 -5 5 -10 11 -10 5 0 7 5 4 10 -3 6 -8 10 -11 10 -2 0
-4 -4 -4 -10z"/>
<path d="M6841 4904 c0 -11 3 -14 6 -6 3 7 2 16 -1 19 -3 4 -6 -2 -5 -13z"/>
<path d="M7231 4849 c-9 -25 -8 -34 1 -40 9 -6 9 -19 -4 -58 -9 -28 -12 -51
-7 -51 13 0 11 -32 -6 -79 -12 -36 -12 -41 0 -41 18 0 18 1 -1 -55 -12 -36
-13 -50 -4 -60 9 -11 9 -23 1 -47 -6 -17 -9 -45 -5 -62 3 -17 1 -44 -5 -59 -7
-17 -8 -35 -2 -44 5 -9 4 -33 -1 -55 -8 -37 2 -81 15 -61 3 5 8 67 12 139 3
71 8 163 10 204 3 41 7 122 10 180 3 58 7 125 10 150 7 60 -8 84 -24 39z"/>
<path d="M6975 4860 c3 -5 8 -10 11 -10 2 0 4 5 4 10 0 6 -5 10 -11 10 -5 0
-7 -4 -4 -10z"/>
<path d="M6306 4815 c-3 -8 -1 -15 4 -15 13 0 22 18 11 24 -5 3 -11 -1 -15 -9z"/>
<path d="M7391 4793 c-13 -27 -13 -28 8 -9 11 10 18 23 15 27 -8 13 -10 12
-23 -18z"/>
<path d="M6872 4775 c0 -16 2 -22 5 -12 2 9 2 23 0 30 -3 6 -5 -1 -5 -18z"/>
<path d="M60 4776 c0 -2 7 -9 15 -16 13 -11 14 -10 9 4 -5 14 -24 23 -24 12z"/>
<path d="M160 4750 c0 -5 5 -10 11 -10 5 0 7 5 4 10 -3 6 -8 10 -11 10 -2 0
-4 -4 -4 -10z"/>
<path d="M6771 4744 c0 -11 3 -14 6 -6 3 7 2 16 -1 19 -3 4 -6 -2 -5 -13z"/>
<path d="M7396 4730 c-4 -19 -7 -52 -7 -72 0 -20 -6 -56 -14 -79 -19 -52 -19
-61 0 -29 14 25 14 25 9 -10 -3 -19 -10 -48 -15 -64 -12 -38 -11 -49 1 -41 10
6 7 -24 -7 -65 -9 -27 -12 -250 -4 -250 5 0 12 37 15 83 4 45 9 109 12 142 20
237 27 366 22 395 -3 22 -5 21 -12 -10z"/>
<path d="M106 4721 c-4 -7 -5 -15 -2 -18 9 -9 19 4 14 18 -4 11 -6 11 -12 0z"/>
<path d="M6757 4690 c-3 -13 0 -29 9 -37 12 -13 14 -11 14 9 0 13 -4 29 -9 36
-6 10 -10 8 -14 -8z"/>
<path d="M6856 4657 c-9 -33 -7 -37 9 -31 16 7 20 39 6 48 -5 3 -11 -4 -15
-17z"/>
<path d="M6327 4643 c-12 -22 -16 -63 -6 -63 7 0 9 -15 4 -48 -3 -26 -2 -58 4
-72 8 -19 10 1 8 83 -1 59 -3 107 -4 107 -1 0 -4 -3 -6 -7z"/>
<path d="M6756 4604 c-4 -15 -4 -38 -1 -53 3 -14 -1 -47 -9 -73 -11 -39 -11
-48 0 -52 21 -8 24 5 25 104 1 96 -4 119 -15 74z"/>
<path d="M6987 4617 c-11 -29 -9 -43 4 -30 6 6 9 19 7 29 -3 18 -4 18 -11 1z"/>
<path d="M6541 4613 c0 -6 -4 -20 -7 -30 -5 -14 -4 -15 5 -7 7 7 11 20 8 30
-3 11 -5 14 -6 7z"/>
<path d="M6857 4563 c-3 -16 -9 -37 -13 -47 -5 -13 -4 -17 3 -13 6 4 14 1 16
-5 3 -7 6 11 6 40 1 57 -4 67 -12 25z"/>
<path d="M70 4540 c0 -5 5 -10 10 -10 6 0 10 5 10 10 0 6 -4 10 -10 10 -5 0
-10 -4 -10 -10z"/>
<path d="M60 4500 c0 -5 5 -10 10 -10 6 0 10 5 10 10 0 6 -4 10 -10 10 -5 0
-10 -4 -10 -10z"/>
<path d="M6979 4479 c-7 -14 -7 -24 -1 -28 5 -3 7 -15 5 -26 -8 -39 -9 -287
-1 -291 4 -3 8 16 9 43 0 26 3 110 5 186 2 75 2 137 -1 137 -2 0 -9 -10 -16
-21z"/>
<path d="M6844 4415 c-7 -21 -7 -35 -2 -35 6 0 9 -21 7 -47 -1 -27 -1 -61 1
-78 2 -16 6 13 10 65 7 110 1 149 -16 95z"/>
<path d="M6329 4383 c-2 -16 -1 -50 2 -78 5 -45 6 -42 7 28 2 77 -3 101 -9 50z"/>
<path d="M6530 4383 c-2 -46 -2 -137 1 -170 1 -16 5 9 9 55 4 45 4 97 0 115
l-8 32 -2 -32z"/>
<path d="M6745 4382 c-4 -20 -3 -38 3 -44 12 -12 21 31 12 58 -6 16 -8 13 -15
-14z"/>
<path d="M6737 4247 c-3 -7 -2 -36 1 -63 5 -45 7 -47 13 -19 10 45 10 95 0 95
-5 0 -11 -6 -14 -13z"/>
<path d="M7778 4033 c-14 -3 -18 -15 -18 -46 l-1 -42 -19 24 c-23 27 -27 15
-5 -15 8 -10 14 -28 15 -39 0 -17 -2 -18 -11 -5 -8 12 -9 9 -4 -10 16 -65 18
-100 4 -100 -11 0 -11 -2 1 -10 9 -6 10 -10 3 -10 -6 0 -11 -9 -10 -20 1 -11
5 -20 9 -20 4 0 8 -4 8 -10 0 -5 -7 -10 -15 -10 -8 0 -15 -4 -15 -10 0 -5 3
-10 8 -10 4 0 5 -67 4 -150 -3 -111 -1 -150 8 -150 6 0 10 -6 7 -12 -2 -7 3
-19 12 -25 14 -11 13 -13 -6 -19 -22 -6 -23 -12 -23 -90 0 -49 -4 -84 -10 -84
-5 0 -10 -4 -10 -10 0 -12 30 -13 50 0 12 8 12 11 -2 27 -15 17 -15 19 8 36
26 20 34 8 8 -14 -14 -11 -14 -13 0 -21 9 -5 20 -7 24 -4 5 3 26 -13 48 -35
33 -34 39 -37 45 -22 4 11 -4 36 -19 63 -14 25 -19 39 -12 33 21 -19 30 -16
30 12 0 14 -5 25 -12 25 -7 0 -6 6 4 18 28 32 33 46 15 39 -12 -5 -17 -1 -17
13 0 10 4 21 10 25 5 3 6 13 3 22 -4 10 1 21 13 30 15 11 16 15 5 22 -9 6 -10
11 -2 15 20 13 12 56 -15 81 -21 20 -24 28 -15 39 17 20 27 116 12 116 -6 0
-11 -4 -11 -10 0 -5 -3 -10 -7 -10 -5 0 -6 85 -5 190 l4 190 -39 -1 c-21 -1
-46 -3 -55 -6z m52 -683 c0 -5 -2 -10 -4 -10 -3 0 -8 5 -11 10 -3 6 -1 10 4
10 6 0 11 -4 11 -10z m1 -85 c0 -13 -41 -19 -41 -7 0 11 20 22 33 18 5 -1 8
-6 8 -11z"/>
<path d="M7709 3671 c8 -5 10 -14 6 -21 -5 -9 -4 -11 3 -6 18 11 14 36 -5 36
-14 0 -15 -2 -4 -9z"/>
<path d="M6360 3641 c0 -5 -3 -16 -6 -25 -5 -12 0 -16 18 -16 32 0 40 8 27 31
-10 19 -39 26 -39 10z"/>
<path d="M6826 3535 c58 -85 85 -115 54 -59 -12 23 -40 61 -62 85 l-39 44 47
-70z"/>
<path d="M5972 3578 c-17 -17 -15 -57 2 -64 21 -8 58 15 54 33 -5 25 -42 45
-56 31z"/>
<path d="M7030 3470 c0 -5 18 -20 40 -32 21 -13 42 -33 45 -46 7 -28 26 -19
21 11 -5 34 -106 98 -106 67z"/>
<path d="M7666 3447 c3 -10 9 -15 12 -12 3 3 0 11 -7 18 -10 9 -11 8 -5 -6z"/>
<path d="M5905 3427 c-4 -10 -5 -21 -1 -24 10 -10 18 4 13 24 -4 17 -4 17 -12
0z"/>
<path d="M6831 3417 c-6 -8 -12 -36 -15 -63 -5 -59 -13 -82 -38 -111 -26 -28
-20 -67 10 -71 20 -3 22 1 22 37 0 22 4 52 10 66 5 14 12 49 14 77 2 28 9 54
16 58 8 5 8 10 2 14 -5 3 -15 0 -21 -7z"/>
<path d="M7598 3401 c4 -28 2 -29 -32 -28 -20 1 -36 5 -36 10 0 10 -77 3 -87
-7 -11 -10 27 -56 52 -62 29 -7 32 -20 9 -45 -9 -10 -14 -25 -11 -34 8 -18 27
-20 27 -2 0 7 6 22 14 32 13 18 14 18 9 -8 -3 -16 -16 -35 -29 -44 -24 -15
-34 -63 -14 -63 5 0 7 -7 4 -15 -7 -18 -35 -20 -52 -3 -9 9 -12 9 -12 0 0 -7
-7 -12 -15 -12 -8 0 -15 -4 -15 -10 0 -5 -13 -10 -30 -10 -24 0 -28 -3 -23
-17 12 -30 57 -62 105 -73 39 -10 68 -34 55 -46 -11 -12 -68 -4 -98 13 -25 15
-40 18 -52 11 -10 -5 -22 -6 -27 -3 -17 11 -50 -15 -50 -40 0 -24 55 -74 67
-61 4 3 3 6 -2 6 -4 0 -2 7 5 15 7 8 23 15 37 15 30 0 65 -18 58 -30 -7 -11
78 -25 135 -21 54 3 111 4 165 2 22 -1 62 -1 88 -1 45 2 47 3 33 19 -9 10 -16
26 -16 36 0 15 2 15 16 4 13 -10 17 -10 25 2 6 10 3 18 -11 28 -17 12 -18 15
-4 29 9 9 13 24 10 36 -3 12 -6 29 -6 39 0 9 -6 17 -14 17 -8 0 -31 16 -51 35
-35 34 -37 35 -76 25 -23 -6 -43 -9 -46 -7 -5 6 -13 64 -17 127 -2 25 -5 45
-7 46 -2 0 -14 6 -26 13 -25 13 -26 30 -3 47 12 10 13 16 1 38 -9 16 -23 26
-36 26 -18 0 -21 -5 -17 -29z m-44 -86 c-7 -16 -24 -21 -24 -6 0 8 7 13 27 20
1 1 0 -6 -3 -14z m61 -35 c3 -5 1 -10 -4 -10 -6 0 -11 5 -11 10 0 6 2 10 4 10
3 0 8 -4 11 -10z m56 -77 c0 -5 3 -30 5 -58 3 -27 9 -63 14 -79 6 -16 10 -38
9 -50 -1 -28 -19 35 -26 92 -4 36 -8 42 -29 42 -13 0 -28 9 -34 19 -13 25 -13
34 0 26 5 -3 18 -1 27 4 22 12 33 14 34 4z m-57 -109 c10 -26 7 -44 -8 -44
-14 0 -26 21 -26 46 0 19 26 18 34 -2z m116 1 c0 -8 -2 -15 -4 -15 -2 0 -6 7
-10 15 -3 8 -1 15 4 15 6 0 10 -7 10 -15z m25 5 c3 -5 1 -10 -4 -10 -6 0 -11
5 -11 10 0 6 2 10 4 10 3 0 8 -4 11 -10z m-175 -100 c0 -5 -5 -10 -11 -10 -5
0 -7 5 -4 10 3 6 8 10 11 10 2 0 4 -4 4 -10z m125 -20 c3 -5 1 -10 -4 -10 -6
0 -11 5 -11 10 0 6 2 10 4 10 3 0 8 -4 11 -10z m-295 -30 c0 -5 -2 -10 -4 -10
-3 0 -8 5 -11 10 -3 6 -1 10 4 10 6 0 11 -4 11 -10z"/>
<path d="M6436 3411 c-4 -5 0 -12 6 -14 8 -3 6 -6 -4 -6 -37 -2 -9 -41 29 -41
25 0 30 19 13 51 -11 20 -35 25 -44 10z"/>
<path d="M6330 3369 c0 -5 5 -7 10 -4 6 3 10 8 10 11 0 2 -4 4 -10 4 -5 0 -10
-5 -10 -11z"/>
<path d="M6952 3355 c12 -27 28 -34 28 -12 0 14 -20 37 -32 37 -4 0 -2 -11 4
-25z"/>
<path d="M7180 3371 c0 -5 11 -11 25 -13 28 -6 34 6 9 16 -22 8 -34 7 -34 -3z"/>
<path d="M7000 3355 c7 -8 21 -15 31 -15 13 0 17 -7 16 -27 -1 -18 3 -27 11
-25 6 1 12 -3 12 -9 0 -6 7 -4 15 5 14 13 13 18 -2 44 -10 16 -23 27 -30 25
-6 -2 -14 1 -18 6 -3 6 -15 11 -27 11 -17 0 -18 -2 -8 -15z"/>
<path d="M7406 3349 c3 -6 7 -28 9 -50 2 -35 0 -40 -22 -46 -22 -5 -23 -7 -9
-15 28 -16 53 0 60 37 7 38 -4 69 -29 79 -10 3 -14 2 -9 -5z"/>
<path d="M6900 3340 c0 -5 5 -10 11 -10 5 0 7 5 4 10 -3 6 -8 10 -11 10 -2 0
-4 -4 -4 -10z"/>
<path d="M7203 3324 c9 -3 17 -14 17 -24 0 -10 -8 -20 -17 -23 -17 -4 -17 -4
0 -12 12 -5 24 -2 35 9 21 21 5 50 -29 53 -15 1 -17 0 -6 -3z"/>
<path d="M6220 3311 c0 -5 5 -13 10 -16 6 -3 10 -2 10 4 0 5 -4 13 -10 16 -5
3 -10 2 -10 -4z"/>
<path d="M5945 3302 c-14 -10 -17 -32 -5 -32 11 0 26 28 18 35 -2 2 -8 1 -13
-3z"/>
<path d="M6499 3248 c-2 -25 3 -53 13 -65 15 -18 42 12 32 35 -4 9 -6 20 -6
25 3 11 -13 8 -27 -5 -10 -11 -11 -10 -6 5 4 9 4 17 1 17 -3 0 -7 -6 -7 -12z"/>
<path d="M7039 3233 c0 -5 -2 -23 -5 -40 -4 -37 13 -46 20 -10 7 32 4 57 -6
57 -4 0 -8 -3 -9 -7z"/>
<path d="M6850 3220 c0 -5 5 -10 11 -10 5 0 7 5 4 10 -3 6 -8 10 -11 10 -2 0
-4 -4 -4 -10z"/>
<path d="M7215 3188 c-19 -12 -19 -12 5 -18 15 -4 26 -14 28 -27 2 -16 -4 -23
-26 -28 -22 -4 -36 -18 -53 -51 -16 -29 -20 -47 -14 -52 15 -10 13 -54 -2 -59
-7 -3 -18 7 -24 20 l-12 26 -43 -22 c-24 -11 -44 -27 -44 -33 0 -7 -8 -15 -17
-17 -11 -3 -6 -5 11 -6 16 0 37 6 47 15 21 19 60 11 41 -8 -17 -17 -15 -38 4
-38 20 0 86 39 97 57 4 7 17 13 28 13 17 0 18 3 9 20 -6 11 -27 31 -48 46 -32
22 -34 25 -12 21 14 -2 33 -8 43 -12 22 -9 23 14 1 41 -8 10 -12 12 -8 4 5
-12 4 -12 -6 -3 -15 14 -3 36 15 29 7 -2 21 4 30 14 15 17 15 21 0 49 -17 34
-21 36 -50 19z"/>
<path d="M6550 3171 c0 -10 19 -25 25 -20 1 2 -3 10 -11 17 -8 7 -14 8 -14 3z"/>
<path d="M6423 3140 c-11 -30 -8 -40 14 -40 8 0 13 12 13 29 0 41 -14 46 -27
11z"/>
<path d="M7356 3152 c-3 -6 -1 -14 5 -17 14 -9 20 -2 10 14 -6 8 -11 9 -15 3z"/>
<path d="M5829 3133 c-13 -15 -12 -15 9 -4 23 12 28 21 13 21 -5 0 -15 -7 -22
-17z"/>
<path d="M6663 3120 c1 -10 4 -17 8 -14 12 7 29 -23 23 -41 -5 -13 -2 -16 12
-13 23 4 32 38 10 38 -9 0 -16 6 -16 13 0 7 -9 18 -19 24 -17 11 -20 10 -18
-7z"/>
<path d="M6926 3101 c-3 -5 6 -8 19 -8 14 0 28 3 31 8 3 5 -6 9 -20 9 -14 0
-27 -4 -30 -9z"/>
<path d="M7 3093 c-4 -3 -6 -49 -5 -102 l1 -96 7 100 c7 107 7 108 -3 98z"/>
<path d="M6015 3079 c-4 -11 -4 -23 -1 -26 3 -4 6 1 6 10 0 8 5 17 12 19 9 3
9 6 1 11 -7 4 -14 -1 -18 -14z"/>
<path d="M6370 3085 c0 -8 -6 -12 -14 -9 -7 3 -16 -2 -20 -12 -6 -15 -4 -15
11 -3 15 12 16 12 10 -3 -3 -10 -3 -18 2 -18 5 0 11 8 15 18 3 9 9 23 12 30 3
6 1 12 -5 12 -6 0 -11 -7 -11 -15z"/>
<path d="M6495 3064 c-9 -15 -12 -23 -6 -20 11 7 35 46 28 46 -3 0 -12 -12
-22 -26z"/>
<path d="M7040 3060 c-47 -15 -75 -28 -62 -29 13 -1 20 -5 17 -11 -3 -5 0 -10
7 -10 7 0 23 -3 36 -6 13 -4 22 -2 22 5 0 6 -10 16 -22 20 -23 9 -23 9 5 20
38 15 70 14 61 -1 -4 -7 -3 -8 5 -4 6 4 9 11 6 16 -3 4 7 13 22 18 65 24 -17
9 -97 -18z"/>
<path d="M6746 3065 c-3 -9 4 -25 16 -37 16 -16 20 -17 15 -5 -5 14 -1 13 23
-5 23 -16 27 -25 19 -35 -9 -10 -4 -16 22 -27 37 -15 54 -12 64 11 7 20 -7 36
-33 38 -19 1 -24 5 -76 50 -34 29 -42 31 -50 10z"/>
<path d="M6915 3071 c-3 -5 -1 -12 5 -16 12 -7 30 2 30 16 0 12 -27 12 -35 0z"/>
<path d="M6557 3063 c-4 -3 -7 -16 -6 -27 0 -19 1 -19 10 3 10 24 8 36 -4 24z"/>
<path d="M6119 3047 c-8 -24 -5 -38 8 -33 8 3 17 6 19 6 11 0 2 19 -11 24 -8
3 -15 4 -16 3z"/>
<path d="M6310 3050 c-1 -3 -3 -16 -6 -30 -3 -21 -2 -22 7 -7 6 10 8 23 5 30
-2 7 -5 10 -6 7z"/>
<path d="M7325 3030 c3 -5 8 -10 11 -10 2 0 4 5 4 10 0 6 -5 10 -11 10 -5 0
-7 -4 -4 -10z"/>
<path d="M6564 2993 c-35 -37 -28 -57 20 -58 48 0 66 21 48 59 -15 33 -37 33
-68 -1z"/>
<path d="M6935 3011 c-6 -11 9 -23 19 -14 9 9 7 23 -3 23 -6 0 -12 -4 -16 -9z"/>
<path d="M5987 2967 c-27 -28 -27 -30 -11 -48 20 -22 34 -24 58 -6 17 13 17
15 -1 48 l-18 35 -28 -29z"/>
<path d="M6770 2979 c0 -9 7 -19 15 -23 8 -3 15 -12 15 -20 0 -7 7 -16 15 -20
23 -8 18 6 -15 44 -20 24 -29 30 -30 19z"/>
<path d="M6379 2963 c-5 -27 -6 -53 -2 -53 14 0 43 23 43 34 0 18 -38 35 -41
19z"/>
<path d="M6940 2962 c0 -14 39 -46 47 -39 3 4 -2 16 -12 27 -19 21 -35 26 -35
12z"/>
<path d="M6260 2936 c0 -25 16 -36 52 -36 16 0 19 5 14 23 -3 12 -6 25 -6 30
0 4 -13 7 -30 7 -25 0 -30 -4 -30 -24z"/>
<path d="M7895 2853 c-2 -7 -11 -13 -20 -13 -8 0 -15 -4 -15 -9 0 -5 -9 -11
-20 -14 -13 -3 -20 -14 -21 -31 -2 -38 -3 -44 -11 -52 -13 -12 -9 -44 7 -60 9
-9 15 -34 15 -60 0 -59 -1 -57 16 -76 12 -12 15 -36 13 -93 -3 -74 -4 -76 -26
-70 -30 7 -29 -6 2 -37 25 -25 25 -25 5 -43 -11 -10 -20 -31 -20 -47 0 -32
-23 -47 -44 -29 -11 10 -15 8 -19 -6 -3 -10 -5 -2 -6 18 -1 43 -36 83 -51 59
-5 -8 -7 -17 -4 -22 3 -4 -1 -16 -7 -27 -10 -15 -9 -22 4 -36 22 -21 21 -32
-1 -39 -10 -4 -19 -13 -19 -21 0 -10 5 -11 18 -4 23 12 29 11 29 -4 0 -7 9
-21 21 -30 11 -10 18 -21 15 -25 -4 -3 -16 4 -28 15 -19 20 -23 20 -44 7 -14
-10 -24 -11 -28 -5 -4 6 -13 8 -20 5 -8 -3 -17 -1 -21 5 -3 6 0 11 7 11 10 0
13 11 10 38 -5 39 -19 65 -32 57 -8 -5 -24 11 -25 25 -4 27 -20 50 -35 50 -25
0 -33 -37 -9 -43 11 -3 19 -12 19 -21 0 -18 -36 -40 -50 -31 -18 11 -11 -21
10 -48 21 -27 27 -67 9 -67 -5 0 -15 14 -20 30 -6 17 -15 30 -19 30 -5 0 -10
10 -12 22 -4 28 -28 36 -28 9 0 -11 5 -23 10 -26 19 -12 -2 -26 -34 -23 -42 4
-46 -14 -4 -28 29 -10 34 -10 44 7 11 22 24 15 24 -13 0 -10 6 -18 14 -18 8 0
29 -13 46 -29 28 -25 30 -31 20 -51 -6 -12 -9 -28 -6 -37 4 -10 2 -13 -6 -10
-9 3 -13 -8 -13 -36 0 -34 -4 -44 -25 -54 -25 -12 -25 -13 -2 -13 12 0 22 -4
22 -10 0 -5 -16 -10 -35 -10 -33 0 -35 -2 -29 -26 6 -23 4 -25 -17 -22 -17 2
-27 -4 -35 -21 -11 -22 -10 -27 6 -38 21 -15 23 -50 3 -57 -7 -3 -16 0 -19 6
-4 7 -2 14 4 16 13 4 17 22 4 22 -17 0 -32 -40 -22 -60 9 -17 21 -20 70 -20
51 0 60 3 58 18 -2 32 2 52 11 52 6 0 7 -16 4 -35 l-6 -35 276 2 c188 1 280
-2 289 -10 9 -7 19 -7 28 -2 21 14 30 12 30 -5 0 -7 -8 -19 -17 -24 -10 -6
-14 -11 -9 -11 17 0 -27 -40 -44 -40 -13 0 -19 -10 -22 -36 -2 -19 -1 -37 3
-40 4 -2 5 -30 2 -62 -3 -36 -1 -67 6 -80 6 -12 8 -22 3 -22 -9 0 -6 -112 3
-138 2 -6 1 -12 -3 -12 -4 0 -8 -11 -8 -25 -2 -19 3 -25 20 -26 11 0 15 -3 9
-6 -7 -2 -13 -11 -13 -19 0 -9 5 -12 12 -8 7 5 8 3 2 -7 -4 -8 -7 -24 -6 -36
4 -26 -7 -33 -53 -35 -29 -1 -34 -5 -30 -18 4 -13 -2 -19 -20 -24 -14 -4 -25
-11 -25 -16 0 -6 -8 -10 -18 -10 -10 0 -23 -5 -30 -12 -9 -9 -12 -5 -12 20 0
34 -15 41 -51 22 -12 -7 -19 -7 -19 -1 0 5 -10 13 -22 17 -13 3 -31 13 -40 22
-16 13 -18 12 -28 -12 -5 -15 -10 -32 -10 -37 0 -5 -9 -9 -19 -9 -24 0 -51
-36 -51 -66 0 -28 22 -46 62 -49 22 -2 32 -8 30 -17 -7 -26 -21 -32 -40 -15
-10 9 -24 17 -30 17 -14 0 -24 -33 -16 -53 5 -15 8 -15 27 -2 30 21 34 19 35
-15 0 -16 -4 -30 -9 -30 -5 0 -9 5 -9 11 0 8 -4 8 -14 0 -10 -9 -15 -8 -19 3
-8 21 -63 45 -88 39 -22 -6 -22 -5 -6 18 23 31 21 49 -3 49 -11 0 -20 -4 -20
-10 0 -12 -69 -10 -77 3 -3 5 2 16 11 25 15 15 16 15 16 -1 0 -21 29 -22 56
-2 18 15 18 15 1 29 -11 8 -25 12 -33 9 -9 -3 -14 2 -15 13 0 13 -5 9 -16 -14
-9 -17 -23 -32 -30 -32 -15 0 -18 26 -3 35 19 12 11 45 -11 45 -14 0 -19 -5
-16 -14 3 -8 3 -17 -1 -21 -4 -4 -7 -12 -7 -18 0 -6 -15 -19 -32 -30 -32 -19
-33 -19 -33 0 0 11 11 30 25 43 14 13 25 31 24 39 0 10 -4 8 -9 -6 -11 -27
-18 -28 -41 -7 -23 20 -71 12 -63 -11 4 -10 0 -15 -12 -16 -34 -2 -39 -4 -39
-14 0 -5 10 -10 23 -10 13 -1 27 -7 32 -14 4 -8 13 -10 20 -6 14 8 41 -25 35
-42 -2 -7 9 -33 25 -57 30 -44 37 -66 21 -66 -10 0 -85 90 -87 105 -1 5 -2 16
-3 23 -1 18 -82 -46 -89 -70 -4 -15 -6 -16 -19 -2 -11 10 -25 13 -47 8 -17 -3
-33 -8 -35 -10 -4 -3 57 -64 65 -64 3 0 15 5 27 11 21 11 21 11 6 -7 -9 -10
-15 -25 -13 -32 1 -7 0 -8 -3 -2 -8 16 -26 11 -19 -6 4 -10 1 -14 -6 -12 -7 3
-15 14 -18 26 -4 15 -9 19 -19 13 -26 -17 -41 -1 -41 44 0 47 -22 75 -61 75
-13 1 -35 10 -48 21 -23 19 -23 20 -5 35 10 8 -5 3 -33 -11 -29 -14 -52 -30
-50 -36 1 -7 -5 -14 -13 -16 -13 -4 -13 -3 0 6 20 14 4 14 -21 0 -16 -8 -18
-13 -8 -25 6 -8 9 -17 6 -21 -4 -3 -9 2 -13 11 -7 19 -34 22 -34 4 1 -7 24
-24 53 -38 33 -16 51 -31 49 -40 -3 -12 -1 -12 9 -3 10 10 10 15 0 27 -21 25
24 76 66 76 42 0 42 -10 0 -47 l-33 -29 19 -32 c19 -32 25 -35 62 -33 14 1 25
-10 37 -39 9 -22 21 -40 28 -40 17 0 24 29 11 44 -8 10 -9 16 -1 21 16 10 31
-5 25 -26 -9 -26 3 -59 21 -59 8 0 14 5 14 11 0 5 -4 8 -9 4 -12 -7 -24 12
-16 25 5 8 11 7 21 -1 8 -6 25 -8 39 -5 14 4 25 2 25 -4 0 -5 -6 -10 -14 -10
-7 0 -16 -8 -19 -19 -3 -15 0 -17 16 -13 15 4 19 1 14 -10 -3 -9 2 -23 12 -32
16 -14 36 -16 142 -10 68 4 122 4 119 1 -3 -3 -70 -11 -148 -16 -79 -6 -147
-13 -152 -16 -6 -4 -10 -15 -10 -26 0 -15 5 -19 18 -15 9 3 24 1 32 -4 11 -7
-2 -10 -42 -10 -61 0 -81 12 -48 30 11 6 20 17 20 26 0 12 -4 12 -32 -2 -44
-22 -44 -21 -22 -45 19 -22 19 -22 -3 -11 -12 7 -24 17 -26 24 -3 8 -6 6 -6
-4 -1 -14 -10 -18 -42 -18 -32 0 -40 3 -35 15 3 9 0 15 -9 15 -8 0 -15 -4 -15
-9 0 -5 -7 -17 -16 -25 -14 -15 -2 -16 136 -16 167 0 833 16 1002 25 59 3 167
12 240 20 127 14 322 32 418 40 25 2 90 8 145 13 55 6 107 10 115 10 18 0 146
9 280 18 52 4 169 7 260 8 91 1 170 3 175 6 6 3 63 6 127 5 l118 0 0 63 0 62
-617 -1 c-340 0 -710 -4 -823 -8 -113 -4 -228 -5 -256 -3 l-52 4 4 51 c2 29 9
69 15 89 14 45 7 68 -22 68 -15 0 -19 4 -15 16 3 9 6 20 6 26 0 6 7 7 17 4 21
-9 63 31 63 60 0 12 -10 31 -23 41 -12 10 -23 29 -24 43 -1 13 -9 29 -17 35
-11 9 -14 51 -15 230 -1 121 -4 253 -8 293 -7 85 -17 96 -100 107 -40 5 -56
12 -68 32 -14 21 -15 27 -4 34 11 8 10 12 -5 24 -17 13 -17 19 -7 60 10 38 9
50 -4 68 -8 12 -15 31 -14 42 0 11 3 14 6 8 7 -20 20 -15 26 8 3 12 10 18 16
14 15 -8 13 5 -4 35 -7 14 -11 37 -8 52 4 20 1 29 -11 34 -9 3 -16 14 -16 23
0 9 -5 22 -12 29 -9 9 -8 15 6 25 10 7 17 24 16 38 -4 41 -1 317 5 476 4 99 3
159 -4 172 -9 16 -23 20 -81 23 -49 2 -71 -1 -75 -9z m48 -498 c-3 -9 -8 -14
-10 -11 -3 3 -2 9 2 15 9 16 15 13 8 -4z m32 -65 c3 -6 -1 -7 -9 -4 -18 7 -21
14 -7 14 6 0 13 -4 16 -10z m-405 -101 c0 -11 -4 -17 -10 -14 -5 3 -10 13 -10
21 0 8 5 14 10 14 6 0 10 -9 10 -21z m438 -13 c-4 -29 -22 -23 -26 9 -3 19 0
24 13 19 9 -4 15 -15 13 -28z m-228 0 c0 -8 3 -21 6 -30 3 -9 2 -16 -3 -16 -5
0 -10 6 -10 13 0 6 -4 20 -8 30 -4 10 -3 17 4 17 6 0 11 -6 11 -14z m165 -35
c0 -48 -14 -66 -44 -56 -16 5 -24 -2 -40 -33 -25 -49 -60 -63 -59 -23 0 14 -5
39 -11 55 -9 21 -9 32 0 42 10 12 15 10 33 -9 18 -19 27 -22 46 -15 17 6 21
11 12 17 -19 12 2 63 23 55 8 -4 15 -1 15 6 0 6 6 10 13 7 7 -2 12 -21 12 -46z
m-98 7 c-3 -8 -6 -5 -6 6 -1 11 2 17 5 13 3 -3 4 -12 1 -19z m-266 -26 c-7 -2
-18 1 -23 6 -8 8 -4 9 13 5 13 -4 18 -8 10 -11z m-6 -32 c3 -5 1 -10 -4 -10
-6 0 -11 5 -11 10 0 6 2 10 4 10 3 0 8 -4 11 -10z m71 -40 c-7 -8 -16 -23 -19
-32 -7 -19 -47 -25 -47 -8 0 6 9 10 20 10 14 0 21 9 26 34 5 28 9 33 19 23 11
-10 11 -15 1 -27z m85 -32 c9 -55 -24 -77 -63 -41 -34 31 -14 86 30 81 22 -2
28 -9 33 -40z m254 33 c-6 -4 -23 -11 -40 -15 l-30 -6 25 15 c27 16 60 21 45
6z m-135 -65 c0 -3 -4 -8 -10 -11 -5 -3 -10 -1 -10 4 0 6 5 11 10 11 6 0 10
-2 10 -4z m93 -3 c-7 -2 -19 -2 -25 0 -7 3 -2 5 12 5 14 0 19 -2 13 -5z m-287
-93 c88 -112 87 -110 81 -110 -3 0 -27 28 -54 63 -27 34 -64 76 -81 94 -31 31
-41 48 -23 41 5 -1 39 -41 77 -88z m284 -65 c-4 -102 -6 -117 -10 -69 -6 77
-1 219 8 208 4 -5 5 -67 2 -139z m-180 114 c0 -5 -4 -9 -9 -9 -5 0 -11 -9 -14
-20 -7 -28 -20 -25 -41 11 -11 18 -14 29 -8 25 7 -4 19 -3 29 2 18 11 43 5 43
-9z m130 -16 c0 -19 -3 -24 -9 -15 -6 10 -13 11 -34 1 -27 -12 -32 -20 -20
-32 3 -4 12 1 18 10 12 15 14 16 29 1 13 -13 13 -18 2 -27 -7 -6 -16 -8 -19
-4 -4 3 -15 -1 -24 -10 -17 -14 -18 -14 -19 6 0 12 -4 29 -8 38 -5 13 2 22 31
37 51 26 53 26 53 -5z m7 -110 c-3 -10 -5 -2 -5 17 0 19 2 27 5 18 2 -10 2
-26 0 -35z m-232 -10 c5 -30 3 -40 -12 -50 -14 -11 -15 -15 -4 -22 7 -5 22 -6
32 -4 13 4 22 -2 29 -23 7 -17 7 -31 1 -37 -13 -13 -51 2 -51 21 0 10 -16 24
-40 34 -38 16 -39 16 -30 -2 5 -10 16 -20 25 -24 25 -9 18 -43 -11 -50 -34 -9
-39 -4 -43 38 0 8 -11 16 -23 18 -14 2 -24 11 -26 23 -2 18 -2 18 8 3 12 -19
35 -24 44 -9 3 5 -2 8 -11 7 -34 -2 -34 96 0 102 14 3 17 -5 17 -37 0 -27 4
-41 13 -41 9 0 12 9 9 28 -4 32 19 62 48 62 13 0 20 -10 25 -37z m193 -12 c3
-16 -1 -22 -10 -19 -7 3 -15 15 -16 27 -3 16 1 22 10 19 7 -3 15 -15 16 -27z
m-68 -31 c0 -5 -2 -10 -4 -10 -3 0 -8 5 -11 10 -3 6 -1 10 4 10 6 0 11 -4 11
-10z m433 -637 c6 -32 3 -38 -12 -28 -13 8 -15 55 -2 55 5 0 11 -12 14 -27z
m-63 -122 c19 -37 -4 -60 -44 -45 -16 6 -22 45 -9 57 13 14 43 7 53 -12z
m-358 -103 c-7 -7 -12 -8 -12 -2 0 14 12 26 19 19 2 -3 -1 -11 -7 -17z m-75
-42 c-10 -25 -37 -19 -37 7 0 13 3 27 7 31 11 11 36 -21 30 -38z m162 -6 c14
-66 14 -73 -4 -66 -17 6 -19 -2 -7 -22 5 -7 16 -10 25 -6 13 5 16 2 10 -12 -5
-13 -3 -15 7 -9 9 5 11 4 6 -3 -10 -17 10 -84 39 -126 13 -20 20 -36 15 -36
-5 0 -12 5 -15 10 -3 6 -15 10 -26 10 -15 0 -18 5 -14 23 4 14 -1 30 -14 43
-13 14 -18 30 -14 45 4 19 3 21 -6 9 -8 -12 -11 -12 -11 -1 0 7 -6 11 -15 7
-18 -7 -20 5 -3 22 7 7 8 12 3 12 -15 0 -32 -14 -37 -29 -2 -9 -9 -1 -17 20
-7 19 -17 43 -22 54 -16 38 -15 49 8 51 13 1 32 13 44 28 11 14 24 26 29 26 5
0 13 -23 19 -50z m50 -1 c-17 -10 -24 4 -14 29 6 16 7 16 17 -2 8 -14 7 -21
-3 -27z m81 -49 c0 -11 -4 -20 -9 -20 -6 0 -9 9 -8 20 1 11 5 20 9 20 4 0 8
-9 8 -20z m-40 2 c0 -5 -7 -17 -15 -28 -14 -18 -14 -17 -4 9 12 27 19 34 19
19z m-555 -32 c-3 -5 -10 -10 -16 -10 -5 0 -9 5 -9 10 0 6 7 10 16 10 8 0 12
-4 9 -10z m75 -23 c0 -8 3 -8 11 0 14 14 39 6 39 -12 0 -8 -7 -21 -16 -30 -9
-8 -13 -23 -10 -31 9 -25 -4 -63 -20 -57 -18 7 -40 -47 -23 -57 8 -5 7 -14 -3
-31 -7 -13 -13 -25 -13 -26 0 -1 -13 -5 -29 -9 -23 -6 -27 -4 -20 7 14 23 15
49 1 46 -7 -1 -11 6 -9 16 2 11 -2 17 -10 16 -26 -4 -46 12 -41 34 11 49 13
53 23 37 6 -8 10 -25 10 -38 0 -13 4 -20 10 -17 6 4 8 11 5 16 -4 5 1 9 9 9 9
0 16 5 16 10 0 6 9 10 19 10 26 0 33 13 25 45 -5 20 -13 25 -38 26 l-31 1 35
10 c44 12 46 14 31 32 -10 12 -9 14 8 9 12 -3 21 -10 21 -16z m667 1 c-3 -8
-6 -5 -6 6 -1 11 2 17 5 13 3 -3 4 -12 1 -19z m-130 -13 c-32 -28 -57 -34 -36
-9 12 14 44 32 59 33 3 0 -8 -11 -23 -24z m-692 -16 c11 -17 -1 -21 -15 -4 -8
9 -8 15 -2 15 6 0 14 -5 17 -11z m-298 -21 c-3 -8 -6 -5 -6 6 -1 11 2 17 5 13
3 -3 4 -12 1 -19z m530 -2 c4 -8 17 -15 28 -17 30 -6 40 -78 14 -101 -11 -9
-18 -23 -17 -30 3 -14 -25 -16 -55 -3 -15 6 -16 4 -7 -20 13 -33 6 -43 -16
-24 -11 9 -14 23 -11 46 4 20 2 31 -4 28 -17 -11 -9 12 10 29 21 19 36 60 32
89 -3 20 15 23 26 3z m-373 -11 c3 -9 0 -15 -9 -15 -8 0 -15 7 -15 15 0 8 4
15 9 15 5 0 11 -7 15 -15z m566 -35 c5 0 12 5 15 10 4 6 10 8 15 5 5 -3 19 -1
30 5 17 9 22 7 30 -16 14 -35 -5 -49 -38 -28 -35 23 -44 7 -14 -24 15 -15 32
-25 37 -21 6 4 23 -5 38 -21 33 -32 34 -76 4 -94 -15 -9 -22 -7 -34 12 -9 12
-22 22 -29 22 -8 0 -15 -10 -15 -22 -1 -17 -2 -19 -6 -5 -5 19 -18 22 -28 7
-4 -6 -10 -8 -15 -5 -5 3 -17 -6 -28 -20 -22 -27 -40 -26 -60 5 -11 19 -11 19
8 8 15 -10 22 -10 31 -1 9 9 7 11 -10 6 -23 -6 -28 6 -8 26 10 11 8 11 -10 2
-12 -6 -30 -11 -39 -11 -33 0 11 33 45 34 24 1 33 7 40 28 7 19 6 30 -3 37
-18 15 -14 43 9 67 14 14 21 16 23 7 2 -7 7 -13 12 -13z m-444 -37 c-5 -4 -11
-2 -13 5 -3 6 -11 12 -18 12 -14 0 -27 25 -17 34 3 4 17 -5 31 -18 14 -14 21
-29 17 -33z m791 20 c-3 -10 -5 -4 -5 12 0 17 2 24 5 18 2 -7 2 -21 0 -30z
m-829 -20 c5 -10 7 -24 5 -30 -3 -7 2 -13 11 -13 9 0 16 -7 16 -16 0 -10 6
-14 15 -10 13 4 65 -35 65 -50 0 -9 -75 -1 -88 9 -9 7 -17 6 -24 -1 -20 -20
-27 -13 -15 17 12 32 -2 61 -29 61 -19 0 -17 20 4 36 23 18 30 17 40 -3z m607
-33 c3 -5 1 -10 -4 -10 -6 0 -11 5 -11 10 0 6 2 10 4 10 3 0 8 -4 11 -10z m38
-30 c-3 -12 -8 -19 -11 -16 -5 6 5 36 12 36 2 0 2 -9 -1 -20z m-283 -14 c0 -2
-7 -7 -16 -10 -8 -3 -12 -2 -9 4 6 10 25 14 25 6z m-32 -100 c3 -12 -1 -17
-10 -14 -7 3 -15 13 -16 22 -3 12 1 17 10 14 7 -3 15 -13 16 -22z m243 -22
c12 -14 11 -16 -5 -13 -11 2 -21 10 -24 17 -5 17 13 15 29 -4z m-429 -14 c22
8 41 9 51 4 12 -7 -1 -13 -48 -25 -36 -9 -62 -12 -59 -8 3 5 1 9 -5 9 -5 0
-13 -4 -16 -10 -3 -5 -21 -10 -38 -9 -31 1 -31 1 18 24 32 16 52 21 56 13 5
-7 17 -6 41 2z"/>
<path d="M7827 823 c-10 -9 -9 -23 2 -23 5 0 11 7 15 15 5 15 -5 20 -17 8z"/>
<path d="M7530 592 c0 -12 19 -26 26 -19 2 2 -2 10 -11 17 -9 8 -15 8 -15 2z"/>
<path d="M7160 2655 c-10 -12 -10 -15 3 -15 23 0 47 11 47 21 0 15 -37 10 -50
-6z"/>
<path d="M7770 2408 c0 -9 5 -20 11 -23 17 -11 18 -2 3 19 -12 17 -14 17 -14
4z"/>
<path d="M7388 2393 c-21 -5 -24 -33 -4 -33 25 0 46 12 46 26 0 14 -10 16 -42
7z"/>
<path d="M7251 2323 c-1 -35 2 -40 17 -36 10 2 24 -3 31 -11 18 -21 27 -20 63
6 28 19 31 20 40 5 10 -19 28 -23 28 -7 0 23 -24 35 -61 32 -34 -4 -38 -2 -32
14 5 14 3 16 -13 9 -47 -19 -62 -18 -67 6 -2 15 -5 7 -6 -18z"/>
<path d="M7425 2350 c-10 -17 14 -38 36 -33 26 7 35 23 18 34 -19 12 -46 11
-54 -1z"/>
<path d="M6702 2313 c1 -5 -8 -28 -19 -53 -11 -25 -25 -67 -32 -94 -7 -27 -18
-61 -25 -75 -8 -15 -10 -34 -6 -46 8 -22 4 -35 -10 -35 -6 0 -9 10 -7 21 1 12
-4 24 -10 26 -20 7 -16 -46 3 -54 24 -9 47 9 56 45 5 18 13 32 18 32 6 0 10
14 10 31 0 21 -4 28 -12 23 -7 -4 -6 1 3 12 9 10 22 35 29 54 8 19 20 46 27
59 8 17 9 30 2 43 -9 17 -31 26 -27 11z"/>
<path d="M7485 2300 c3 -5 8 -10 11 -10 2 0 4 5 4 10 0 6 -5 10 -11 10 -5 0
-7 -4 -4 -10z"/>
<path d="M7785 2280 c-3 -5 1 -10 10 -10 9 0 13 5 10 10 -3 6 -8 10 -10 10 -2
0 -7 -4 -10 -10z"/>
<path d="M6825 2161 c30 -61 60 -111 65 -111 13 0 13 17 0 25 -6 4 -31 46 -55
95 -24 49 -49 91 -55 95 -6 4 14 -43 45 -104z"/>
<path d="M7382 2232 c2 -9 13 -18 26 -20 28 -4 20 24 -9 31 -15 4 -19 1 -17
-11z"/>
<path d="M7433 2238 c2 -7 10 -13 17 -13 7 0 15 6 18 13 2 7 -5 12 -18 12 -13
0 -20 -5 -17 -12z"/>
<path d="M6570 2221 c0 -6 4 -13 10 -16 6 -3 7 1 4 9 -7 18 -14 21 -14 7z"/>
<path d="M5616 2195 c-19 -15 -19 -15 2 -15 13 0 22 6 22 15 0 18 0 18 -24 0z"/>
<path d="M6532 2191 c-10 -6 -10 -15 -2 -35 13 -35 13 -34 -7 -39 -14 -4 -13
-5 4 -6 27 -1 42 22 35 55 -5 29 -13 35 -30 25z"/>
<path d="M5566 2181 c-4 -5 -2 -12 3 -15 5 -4 12 -2 15 3 4 5 2 12 -3 15 -5 4
-12 2 -15 -3z"/>
<path d="M7304 2168 c-10 -15 36 -52 49 -39 11 11 2 27 -23 41 -13 7 -21 7
-26 -2z"/>
<path d="M5943 2125 c6 -19 14 -35 18 -35 9 0 -9 58 -21 65 -4 3 -3 -11 3 -30z"/>
<path d="M5750 2130 c0 -11 7 -20 15 -20 8 0 15 6 15 14 0 8 -7 16 -15 20 -10
4 -15 -1 -15 -14z"/>
<path d="M7177 2133 c-12 -11 -8 -34 8 -50 10 -10 13 -23 9 -36 -6 -20 -5 -20
11 -7 15 13 17 12 13 -7 -4 -26 28 -63 54 -63 13 0 18 -6 16 -17 -4 -22 -28
-29 -28 -8 0 14 -3 15 -15 5 -15 -12 -16 -11 -19 11 0 7 -8 15 -16 19 -8 4
-25 12 -37 18 -11 6 -38 8 -58 5 -28 -4 -36 -3 -35 8 5 31 -1 59 -11 59 -7 0
-9 -13 -5 -37 4 -24 3 -33 -2 -24 -7 9 -12 10 -16 2 -4 -6 -12 -9 -17 -6 -5 4
-12 -2 -15 -12 -3 -10 -9 -25 -13 -33 -10 -22 -8 -53 6 -57 6 -2 14 5 18 17 6
18 9 19 22 8 13 -11 12 -15 -13 -35 -15 -12 -32 -19 -38 -16 -20 13 -66 11
-66 -3 0 -7 6 -11 14 -8 15 6 29 -11 31 -38 2 -23 -21 -23 -34 0 -9 15 -10 14
-11 -6 0 -16 7 -26 20 -29 11 -3 20 -12 20 -19 0 -23 17 -16 55 23 37 38 43
53 23 53 -7 0 0 11 15 25 15 14 27 32 27 40 0 16 12 18 59 9 17 -4 31 -13 31
-21 0 -8 5 -11 10 -8 6 4 10 3 9 -2 -1 -4 -1 -16 0 -25 2 -26 21 -22 21 5 1
26 26 64 37 54 4 -4 1 -13 -5 -19 -15 -15 -15 -35 -2 -51 6 -7 20 -24 31 -40
l21 -27 29 21 c16 11 29 27 29 35 0 8 10 14 23 14 18 0 22 6 22 30 0 17 -4 30
-8 30 -5 0 -6 4 -3 9 4 5 0 11 -6 13 -25 9 38 31 92 34 50 2 55 5 58 26 2 14
-5 31 -18 43 -11 10 -20 13 -20 7 0 -17 -55 -8 -75 12 -17 16 -19 16 -45 -9
-19 -18 -30 -23 -35 -15 -4 6 -2 17 4 23 14 14 15 47 1 47 -5 0 -10 -7 -10
-15 0 -8 -5 -15 -11 -15 -5 0 -8 -4 -5 -8 3 -5 -5 -8 -17 -7 -31 3 -47 -5 -47
-21 0 -11 -6 -9 -22 6 -12 11 -25 20 -30 20 -4 0 -8 10 -8 23 0 26 -14 50 -23
40z m-37 -164 c0 -5 -4 -9 -10 -9 -5 0 -10 7 -10 16 0 8 5 12 10 9 6 -3 10
-10 10 -16z m190 -13 c0 -2 -7 -6 -15 -10 -8 -3 -15 -1 -15 4 0 6 7 10 15 10
8 0 15 -2 15 -4z m40 -41 c0 -8 -4 -15 -9 -15 -13 0 -22 16 -14 24 11 11 23 6
23 -9z m-56 -55 c0 -32 -20 -37 -26 -6 -3 14 -3 28 0 31 12 11 26 -3 26 -25z"/>
<path d="M12 2118 c-9 -9 -12 -196 -12 -754 l0 -742 22 -6 c69 -18 228 0 228
27 0 4 15 7 33 7 20 0 41 8 50 18 22 24 21 32 -3 32 -29 0 -22 30 10 43 11 5
9 6 -5 6 -46 -2 -50 1 -22 20 19 12 25 21 17 26 -6 4 -17 -1 -25 -11 -7 -11
-16 -17 -19 -14 -9 10 6 50 19 50 9 0 11 8 8 23 -5 20 -4 20 8 6 8 -10 24 -20
36 -24 18 -5 13 3 -19 36 l-42 43 26 8 c24 8 25 11 16 49 -6 22 -13 37 -16 35
-3 -3 -11 2 -17 11 -10 14 -16 15 -27 5 -13 -10 -15 -5 -15 31 0 95 -2 109
-18 103 -8 -3 -15 -1 -15 4 0 14 18 21 25 10 8 -13 25 -13 25 1 0 6 -9 13 -20
16 -16 4 -18 8 -9 19 12 14 12 14 -31 27 -10 3 -5 9 15 18 l30 13 -28 4 c-16
2 -26 8 -24 15 2 7 11 11 21 9 9 -2 16 2 16 8 0 5 -9 10 -19 10 -10 0 -21 7
-25 15 -3 8 -15 15 -26 15 -26 0 -26 16 0 23 27 7 37 37 16 49 -12 7 -14 14
-7 27 6 10 6 23 1 31 -5 8 -6 18 -4 22 3 4 -1 8 -9 8 -16 0 -27 21 -27 51 0
11 -6 22 -14 25 -11 4 -13 12 -5 31 14 39 11 58 -16 88 -21 22 -24 30 -14 42
10 11 10 16 0 23 -8 4 -10 13 -7 19 9 14 -7 14 -21 0 -7 -7 -12 -4 -16 10 -3
12 0 21 5 21 7 0 9 19 4 54 -4 39 -3 56 7 59 9 3 9 11 0 37 -10 27 -10 36 0
42 9 6 9 12 0 28 -7 11 -13 26 -13 34 0 8 -11 23 -25 34 -17 13 -21 22 -13 25
7 2 10 7 7 10 -3 4 -11 1 -17 -5z m304 -1175 c-10 -10 -19 5 -10 18 6 11 8 11
12 0 2 -7 1 -15 -2 -18z m-56 -157 c0 -3 -4 -8 -10 -11 -5 -3 -10 -1 -10 4 0
6 5 11 10 11 6 0 10 -2 10 -4z"/>
<path d="M6606 2114 c-4 -9 -4 -19 -1 -22 2 -3 7 3 11 12 4 9 4 19 1 22 -2 3
-7 -3 -11 -12z"/>
<path d="M7090 2102 c0 -31 24 -71 36 -60 9 10 -14 88 -26 88 -6 0 -10 -13
-10 -28z"/>
<path d="M5715 2109 c-4 -6 -5 -12 -2 -15 2 -3 7 2 10 11 7 17 1 20 -8 4z"/>
<path d="M5583 2092 c21 -23 21 -29 0 -35 -14 -4 -12 -5 5 -6 25 -1 31 26 10
47 -19 19 -33 14 -15 -6z"/>
<path d="M6521 2080 c-17 -15 -19 -20 -8 -20 9 0 18 4 21 9 3 5 15 7 26 4 14
-4 20 0 20 11 0 22 -30 20 -59 -4z"/>
<path d="M6930 2079 c0 -5 5 -7 10 -4 6 3 10 8 10 11 0 2 -4 4 -10 4 -5 0 -10
-5 -10 -11z"/>
<path d="M5875 2071 c-3 -5 -1 -12 5 -16 5 -3 10 1 10 9 0 18 -6 21 -15 7z"/>
<path d="M5920 2034 c0 -14 4 -23 9 -20 5 3 7 15 4 26 -7 28 -13 25 -13 -6z"/>
<path d="M6988 2044 c-3 -12 -2 -27 2 -34 11 -18 18 1 10 30 -6 24 -6 24 -12
4z"/>
<path d="M6734 2020 c0 -13 4 -16 10 -10 7 7 7 13 0 20 -6 6 -10 3 -10 -10z"/>
<path d="M6890 2031 c0 -3 4 -12 9 -19 6 -11 9 -9 13 5 3 12 0 20 -8 20 -8 0
-14 -3 -14 -6z"/>
<path d="M6310 2020 c-18 -12 -2 -12 25 0 13 6 15 9 5 9 -8 0 -22 -4 -30 -9z"/>
<path d="M6676 2013 c-23 -6 -47 -28 -40 -36 3 -3 13 -3 22 1 14 5 15 3 5 -10
-7 -8 -10 -18 -6 -22 4 -4 1 -11 -7 -16 -8 -5 -12 -11 -9 -14 7 -8 30 10 32
25 2 8 13 29 25 47 23 32 20 36 -22 25z"/>
<path d="M5560 2004 c0 -6 7 -19 16 -30 14 -18 14 -18 3 6 -14 31 -19 36 -19
24z"/>
<path d="M6090 1995 c15 -18 43 -20 38 -3 -2 6 -15 13 -27 15 -20 3 -22 1 -11
-12z"/>
<path d="M6213 1980 c-12 -14 -20 -35 -19 -46 2 -10 -1 -24 -6 -31 -5 -7 -5
-14 2 -18 19 -12 10 -33 -26 -55 -19 -12 -33 -25 -30 -28 3 -2 12 0 19 7 12 9
18 6 31 -13 9 -14 12 -27 7 -31 -13 -7 -41 5 -42 19 -1 6 -5 -5 -8 -24 -9 -45
-3 -57 16 -31 8 12 23 21 33 21 10 0 21 9 25 19 4 13 12 17 25 14 28 -7 50 14
50 48 0 19 5 29 15 29 14 0 13 4 -1 33 -21 40 -33 48 -55 36 -23 -12 -30 18
-11 48 20 32 0 35 -25 3z m19 -95 c6 -29 -7 -34 -15 -6 -4 17 0 31 9 31 1 0 4
-11 6 -25z"/>
<path d="M5965 1976 c-14 -16 -17 -43 -5 -51 5 -3 10 -17 10 -31 0 -14 4 -22
10 -19 20 12 10 -25 -12 -46 -23 -21 -23 -21 -1 -10 29 15 37 43 28 99 -7 46
-7 46 12 29 26 -23 53 -22 53 3 0 13 -5 18 -15 14 -8 -4 -21 -2 -28 3 -22 17
-42 21 -52 9z"/>
<path d="M6783 1967 c-8 -17 -7 -28 2 -40 13 -18 51 -24 40 -7 -3 6 4 14 16
19 23 8 23 8 -4 15 -15 3 -27 13 -27 21 0 23 -15 18 -27 -8z"/>
<path d="M100 1970 c0 -5 5 -10 11 -10 5 0 7 5 4 10 -3 6 -8 10 -11 10 -2 0
-4 -4 -4 -10z"/>
<path d="M6886 1965 c-3 -8 -1 -15 4 -15 6 0 10 7 10 15 0 8 -2 15 -4 15 -2 0
-6 -7 -10 -15z"/>
<path d="M6921 1954 c0 -11 3 -14 6 -6 3 7 2 16 -1 19 -3 4 -6 -2 -5 -13z"/>
<path d="M6440 1951 c0 -6 5 -13 10 -16 6 -3 10 1 10 9 0 9 -4 16 -10 16 -5 0
-10 -4 -10 -9z"/>
<path d="M6390 1941 c0 -6 5 -13 10 -16 6 -3 10 1 10 9 0 9 -4 16 -10 16 -5 0
-10 -4 -10 -9z"/>
<path d="M6532 1903 c-25 -39 -22 -54 8 -35 14 9 20 9 20 1 0 -8 5 -8 15 1 17
14 20 40 5 40 -5 0 -10 7 -10 15 0 24 -13 17 -38 -22z"/>
<path d="M6370 1903 c0 -6 9 -9 20 -6 14 4 22 -1 29 -18 5 -13 10 -19 11 -14
0 6 5 3 10 -5 8 -13 10 -12 10 3 0 9 -4 17 -10 17 -5 0 -9 3 -9 8 4 22 -4 29
-31 28 -16 -1 -30 -6 -30 -13z"/>
<path d="M6455 1910 c-3 -5 -1 -10 4 -10 6 0 11 5 11 10 0 6 -2 10 -4 10 -3 0
-8 -4 -11 -10z"/>
<path d="M5610 1895 c-7 -9 -8 -15 -2 -15 5 0 12 7 16 15 3 8 4 15 2 15 -2 0
-9 -7 -16 -15z"/>
<path d="M6056 1882 c8 -15 14 -34 15 -42 0 -10 3 -8 8 5 10 25 6 37 -18 52
-18 12 -19 11 -5 -15z"/>
<path d="M6131 1894 c0 -11 3 -14 6 -6 3 7 2 16 -1 19 -3 4 -6 -2 -5 -13z"/>
<path d="M6474 1893 c-9 -3 -9 -10 0 -28 11 -24 36 -35 36 -15 0 6 -4 10 -10
10 -5 0 -7 6 -4 14 6 16 -5 25 -22 19z"/>
<path d="M7120 1879 c7 -11 14 -19 16 -16 7 7 -7 37 -17 37 -6 0 -5 -9 1 -21z"/>
<path d="M6780 1874 c0 -8 5 -12 10 -9 6 4 8 11 5 16 -9 14 -15 11 -15 -7z"/>
<path d="M6590 1850 c0 -5 5 -10 11 -10 5 0 7 5 4 10 -3 6 -8 10 -11 10 -2 0
-4 -4 -4 -10z"/>
<path d="M7136 1808 c-9 -36 -7 -48 8 -48 9 0 13 11 12 35 -1 40 -11 46 -20
13z"/>
<path d="M6845 1810 c-18 -7 -18 -9 -3 -15 12 -5 16 -16 14 -36 -2 -16 1 -29
6 -29 6 0 8 -7 5 -15 -4 -8 -2 -17 2 -19 5 -3 12 -20 15 -38 7 -32 8 -33 17
-9 5 13 7 32 4 42 -4 13 -1 19 8 19 8 0 18 7 21 16 8 22 8 24 -8 24 -8 0 -24
16 -36 35 -12 19 -22 35 -23 34 -1 0 -11 -4 -22 -9z"/>
<path d="M7246 1810 c10 -19 6 -70 -7 -86 -6 -7 -9 -23 -7 -36 2 -19 9 -23 38
-24 77 -1 83 50 14 116 -26 25 -43 38 -38 30z"/>
<path d="M6740 1799 c0 -5 -4 -8 -9 -5 -5 3 -12 -1 -15 -10 -9 -24 -3 -26 22
-8 23 16 29 34 12 34 -5 0 -10 -5 -10 -11z"/>
<path d="M6764 1785 c-4 -9 -1 -20 5 -25 7 -4 11 -14 9 -23 -2 -9 1 -17 6 -19
5 -2 10 15 10 36 1 41 -19 61 -30 31z"/>
<path d="M5680 1780 c-9 -6 -10 -10 -3 -10 6 0 15 5 18 10 8 12 4 12 -15 0z"/>
<path d="M7340 1764 c0 -25 28 -40 44 -23 8 8 7 10 -4 7 -8 -3 -20 4 -27 16
l-12 21 -1 -21z"/>
<path d="M6650 1761 c0 -5 9 -11 20 -14 13 -3 20 0 20 9 0 8 -9 14 -20 14 -11
0 -20 -4 -20 -9z"/>
<path d="M7015 1709 c-5 -7 2 -19 16 -30 43 -33 55 -18 15 20 -17 16 -26 19
-31 10z"/>
<path d="M6550 1702 c0 -5 9 -18 20 -30 11 -12 20 -26 20 -32 0 -5 7 -10 16
-10 11 0 14 6 8 22 -10 32 -64 74 -64 50z"/>
<path d="M6710 1700 c-14 -9 -7 -15 15 -10 5 1 15 -6 21 -15 11 -15 13 -15 23
3 9 17 7 21 -12 26 -29 7 -29 7 -47 -4z"/>
<path d="M8085 1580 c-3 -5 1 -10 9 -10 9 0 16 5 16 10 0 6 -4 10 -9 10 -6 0
-13 -4 -16 -10z"/>
<path d="M308 1070 c-17 -30 -17 -30 7 -30 25 0 29 11 17 42 -6 15 -10 13 -24
-12z"/>
<path d="M7250 1093 c0 -19 11 -43 21 -43 13 0 11 14 -6 36 -8 10 -15 14 -15
7z"/>
<path d="M5645 1070 c3 -5 8 -10 11 -10 2 0 4 5 4 10 0 6 -5 10 -11 10 -5 0
-7 -4 -4 -10z"/>
<path d="M6870 1060 c0 -6 19 -7 48 -3 64 8 66 13 4 13 -29 0 -52 -4 -52 -10z"/>
<path d="M7710 1055 c0 -8 5 -15 10 -15 6 0 10 7 10 15 0 8 -4 15 -10 15 -5 0
-10 -7 -10 -15z"/>
<path d="M7963 1025 c-7 -20 2 -29 21 -22 9 4 13 13 10 22 -8 19 -23 19 -31 0z"/>
<path d="M5361 937 c-25 -25 3 -77 42 -77 18 0 47 37 46 60 0 9 -4 6 -9 -7
-11 -27 -34 -31 -26 -5 8 24 -35 47 -53 29z"/>
<path d="M7120 915 c7 -9 15 -13 17 -11 7 7 -7 26 -19 26 -6 0 -6 -6 2 -15z"/>
<path d="M340 890 c13 -24 35 -27 26 -4 -3 9 -6 18 -6 20 0 2 -7 4 -15 4 -13
0 -14 -4 -5 -20z"/>
<path d="M432 891 c13 -22 28 -28 28 -11 0 5 -9 14 -20 20 -19 10 -20 10 -8
-9z"/>
<path d="M6885 903 c-16 -3 -34 -9 -40 -15 -13 -14 76 -1 90 13 9 9 5 10 -50
2z"/>
<path d="M6751 881 c-6 -11 -11 -25 -11 -32 0 -7 -6 -20 -14 -28 -11 -13 -11
-23 -1 -56 l13 -40 1 42 c1 35 4 42 24 45 18 2 22 9 22 42 0 44 -18 58 -34 27z"/>
<path d="M5456 872 c-2 -4 4 -9 15 -9 11 -1 17 2 14 8 -7 11 -22 12 -29 1z"/>
<path d="M6430 854 c0 -8 5 -12 10 -9 6 3 10 10 10 16 0 5 -4 9 -10 9 -5 0
-10 -7 -10 -16z"/>
<path d="M391 844 c0 -11 3 -14 6 -6 3 7 2 16 -1 19 -3 4 -6 -2 -5 -13z"/>
<path d="M5486 832 c-4 -7 -11 -10 -16 -7 -5 3 -24 -8 -42 -24 -25 -23 -29
-30 -15 -31 9 0 16 5 15 12 -2 7 9 13 24 13 32 1 52 17 46 36 -3 10 -6 10 -12
1z"/>
<path d="M6184 808 c3 -13 6 -26 6 -30 0 -5 4 -8 8 -8 5 0 7 14 4 30 -2 17 -9
30 -14 30 -6 0 -8 -10 -4 -22z"/>
<path d="M7240 816 c0 -9 5 -16 10 -16 6 0 10 4 10 9 0 6 -4 13 -10 16 -5 3
-10 -1 -10 -9z"/>
<path d="M7622 817 c-6 -7 -9 -23 -5 -35 6 -23 23 -30 23 -9 0 6 3 22 6 35 7
24 -7 30 -24 9z"/>
<path d="M7180 800 c0 -5 5 -10 11 -10 5 0 7 5 4 10 -3 6 -8 10 -11 10 -2 0
-4 -4 -4 -10z"/>
<path d="M6401 786 c-17 -20 -6 -66 15 -66 11 0 14 6 9 23 -6 21 -6 21 9 3 9
-11 16 -23 16 -27 0 -8 57 -39 73 -39 5 0 4 7 -3 15 -11 13 -8 15 13 15 28 0
32 -25 6 -41 -19 -12 -2 -11 21 1 11 6 21 26 25 49 5 33 3 44 -14 62 -12 13
-21 21 -22 18 0 -2 -2 -17 -4 -33 -7 -49 -48 -62 -67 -21 -10 23 -20 29 -33
23 -2 -2 -10 5 -18 15 -12 17 -14 17 -26 3z"/>
<path d="M6000 780 c0 -5 5 -10 10 -10 6 0 10 5 10 10 0 6 -4 10 -10 10 -5 0
-10 -4 -10 -10z"/>
<path d="M7220 780 c0 -5 5 -10 10 -10 6 0 10 5 10 10 0 6 -4 10 -10 10 -5 0
-10 -4 -10 -10z"/>
<path d="M6054 768 c-7 -12 10 -14 51 -7 22 3 36 7 30 9 -20 6 -77 5 -81 -2z"/>
<path d="M5865 760 c-8 -13 -1 -24 14 -19 6 3 7 10 2 18 -6 10 -10 10 -16 1z"/>
<path d="M6658 759 c-12 -8 -16 -115 -4 -127 11 -10 19 8 20 43 1 19 7 40 14
47 28 28 5 58 -30 37z"/>
<path d="M6224 743 c-18 -19 -19 -14 19 -131 18 -56 29 -102 25 -102 -18 0 -7
-18 14 -24 18 -4 20 -8 10 -18 -14 -14 -16 -58 -2 -58 5 0 16 14 25 30 9 17
24 30 35 30 25 0 63 53 49 67 -8 8 -7 17 1 33 16 29 7 46 -27 54 -50 13 -113
59 -107 78 3 12 0 18 -10 18 -21 0 -20 10 0 25 15 11 15 12 -1 12 -9 0 -23 -7
-31 -14z m95 -110 c5 -10 12 -17 15 -15 3 1 6 -1 5 -4 0 -4 5 -10 13 -15 10
-7 10 -11 -4 -25 -19 -20 -38 -11 -38 18 0 16 -3 18 -14 9 -11 -9 -13 -5 -12
19 1 33 20 40 35 13z"/>
<path d="M340 720 c0 -5 7 -10 15 -10 8 0 15 5 15 10 0 6 -7 10 -15 10 -8 0
-15 -4 -15 -10z"/>
<path d="M6171 632 c1 -51 5 -95 10 -98 5 -3 7 -24 4 -47 -4 -41 -4 -41 4 -7
10 36 -1 225 -13 237 -4 4 -6 -34 -5 -85z"/>
<path d="M5485 700 l-30 -8 27 -1 c15 0 30 4 33 9 3 6 5 9 3 9 -2 -1 -16 -5
-33 -9z"/>
<path d="M6765 661 c3 -5 1 -12 -5 -16 -5 -3 -10 -15 -10 -27 0 -17 -4 -20
-29 -15 -33 7 -49 -14 -26 -33 10 -8 14 -8 18 2 2 7 7 10 11 7 3 -3 -4 -16
-16 -29 -21 -23 -33 -76 -18 -85 14 -9 41 7 36 21 -10 25 4 41 30 36 16 -3 24
0 24 10 0 8 10 23 22 34 20 17 19 14 -6 -28 -21 -38 -24 -48 -11 -48 8 0 15 6
15 13 0 8 9 22 19 31 11 10 17 24 15 31 -3 7 -1 16 5 20 16 9 13 35 -3 35 -8
0 -17 -7 -20 -15 -5 -13 -10 -14 -26 -5 -17 9 -20 17 -15 41 4 19 3 29 -5 29
-6 0 -9 -4 -5 -9z"/>
<path d="M5639 645 c-1 -3 -2 -8 -3 -12 -1 -5 -5 -13 -9 -19 -4 -7 0 -14 8
-18 8 -3 15 -1 15 4 0 6 7 10 16 10 11 0 14 5 10 16 -3 9 -6 18 -6 20 0 6 -30
5 -31 -1z"/>
<path d="M6085 640 c3 -5 8 -10 11 -10 2 0 4 5 4 10 0 6 -5 10 -11 10 -5 0 -7
-4 -4 -10z"/>
<path d="M6480 622 c0 -7 5 -10 10 -7 6 3 10 1 10 -6 0 -8 4 -8 15 1 22 18 18
28 -10 26 -14 0 -25 -7 -25 -14z"/>
<path d="M5800 610 c-9 -16 -8 -18 5 -14 17 7 21 -21 4 -32 -7 -4 -7 -10 -1
-16 7 -7 20 -2 39 16 15 14 22 26 15 26 -6 0 -21 9 -32 20 -19 19 -20 19 -30
0z"/>
<path d="M5931 604 c0 -11 3 -14 6 -6 3 7 2 16 -1 19 -3 4 -6 -2 -5 -13z"/>
<path d="M6200 581 c0 -12 5 -21 10 -21 6 0 10 6 10 14 0 8 -4 18 -10 21 -5 3
-10 -3 -10 -14z"/>
<path d="M5600 580 c0 -5 7 -7 15 -4 8 4 15 8 15 10 0 2 -7 4 -15 4 -8 0 -15
-4 -15 -10z"/>
<path d="M6887 548 c4 -7 6 -22 4 -33 -3 -20 -3 -20 18 -1 29 26 27 46 -5 46
-18 0 -23 -4 -17 -12z"/>
<path d="M5583 533 c0 -9 9 -13 25 -11 36 4 39 25 4 25 -18 0 -29 -6 -29 -14z"/>
<path d="M6043 531 c-10 -16 -9 -18 8 -14 10 3 19 12 19 19 0 20 -13 17 -27
-5z"/>
<path d="M6608 522 c-15 -3 -16 -7 -7 -24 8 -16 7 -22 -8 -33 -28 -21 -7 -29
39 -16 30 9 37 15 27 21 -11 8 -10 12 6 24 31 22 -2 39 -57 28z"/>
<path d="M7061 521 c-8 -5 -20 -7 -26 -5 -25 10 -33 -67 -9 -90 23 -24 41 -19
58 16 17 33 21 69 9 67 -20 -3 -26 2 -13 11 8 5 11 10 5 10 -5 0 -16 -4 -24
-9z"/>
<path d="M5782 499 c-7 -10 -8 -19 -3 -19 13 0 33 28 23 33 -4 3 -13 -3 -20
-14z"/>
<path d="M5827 483 c-4 -3 -7 -11 -7 -17 0 -6 5 -5 12 2 6 6 9 14 7 17 -3 3
-9 2 -12 -2z"/>
<path d="M6052 448 c-6 -21 -5 -38 1 -45 6 -9 6 -13 -2 -13 -6 0 -11 -4 -11
-10 0 -5 14 -10 31 -10 26 0 29 3 20 14 -6 7 -12 30 -13 50 -2 48 -15 55 -26
14z"/>
<path d="M5735 460 c3 -5 8 -10 11 -10 2 0 4 5 4 10 0 6 -5 10 -11 10 -5 0 -7
-4 -4 -10z"/>
<path d="M5845 460 c-4 -7 -3 -16 3 -22 14 -14 45 -2 40 15 -6 16 -34 21 -43
7z"/>
<path d="M6217 443 c-6 -32 -3 -38 12 -28 13 8 15 55 2 55 -5 0 -11 -12 -14
-27z"/>
<path d="M6805 451 c-51 -13 -69 -21 -66 -32 12 -44 12 -59 2 -59 -7 0 -9 -4
-6 -10 3 -5 34 -10 68 -9 34 0 56 3 50 6 -7 2 -13 11 -13 18 0 7 6 16 13 19 8
3 2 14 -18 30 l-30 26 26 0 c15 0 32 7 39 15 7 8 11 14 9 14 -2 -1 -35 -9 -74
-18z m-12 -43 c6 -19 -3 -38 -19 -38 -8 0 -14 10 -14 25 0 26 25 35 33 13z"/>
<path d="M5613 435 c0 -8 7 -15 15 -15 12 0 12 3 2 15 -7 8 -13 15 -15 15 -1
0 -2 -7 -2 -15z"/>
<path d="M5510 430 c31 -10 76 -12 67 -3 -4 4 -26 8 -50 9 -34 2 -37 1 -17 -6z"/>
<path d="M5718 433 c-31 -5 -37 -18 -12 -27 30 -12 50 -6 50 14 0 11 -3 19 -6
19 -3 -1 -17 -4 -32 -6z"/>
<path d="M6434 398 c2 -18 4 -36 5 -40 0 -5 13 -8 27 -8 l26 0 -21 18 c-12 9
-23 27 -24 40 -1 12 -5 22 -9 22 -4 0 -6 -15 -4 -32z"/>
<path d="M6490 385 c0 -8 2 -15 4 -15 2 0 6 7 10 15 3 8 1 15 -4 15 -6 0 -10
-7 -10 -15z"/>
<path d="M6380 366 c0 -9 30 -14 35 -6 4 6 -3 10 -14 10 -12 0 -21 -2 -21 -4z"/>
<path d="M8790 286 c0 -8 -6 -17 -12 -20 -10 -5 -10 -7 0 -12 14 -7 16 -31 3
-36 -12 -4 -2 -58 10 -58 5 0 9 9 9 20 0 11 5 20 10 20 6 0 10 -9 10 -20 0
-11 5 -20 10 -20 6 0 10 9 10 19 0 11 6 22 13 24 9 4 9 7 -1 15 -11 7 -10 13
5 27 13 13 14 20 5 23 -6 2 -12 11 -12 20 -1 15 -2 15 -14 0 -16 -22 -26 -23
-26 -3 0 8 -4 15 -10 15 -5 0 -10 -6 -10 -14z m40 -51 c0 -8 -7 -15 -15 -15
-16 0 -20 12 -8 23 11 12 23 8 23 -8z"/>
<path d="M8893 293 c-24 -9 -13 -24 14 -21 39 4 41 -23 4 -65 -17 -19 -31 -37
-31 -41 0 -3 20 -6 45 -6 25 0 45 5 45 10 0 6 -12 10 -26 10 l-26 0 26 31 c29
34 31 42 16 70 -10 18 -40 24 -67 12z"/>
<path d="M9007 282 c-9 -10 -17 -35 -17 -55 0 -63 54 -90 85 -43 23 34 4 70
-31 63 -19 -3 -24 -1 -22 12 2 9 13 16 26 16 29 1 29 19 -1 23 -13 2 -30 -5
-40 -16z m50 -68 c8 -21 -13 -42 -28 -27 -13 13 -5 43 11 43 6 0 13 -7 17 -16z"/>
<path d="M9117 282 c-36 -39 -13 -122 33 -122 24 0 53 41 44 63 -7 19 -39 31
-55 21 -7 -4 -10 1 -7 12 2 12 12 19 26 19 29 1 29 19 -1 23 -13 2 -30 -5 -40
-16z m50 -68 c8 -21 -13 -42 -28 -27 -13 13 -5 43 11 43 6 0 13 -7 17 -16z"/>
<path d="M9220 265 c0 -31 3 -35 26 -35 21 0 25 -4 22 -22 -2 -18 -9 -23 -31
-21 -37 3 -30 -21 7 -25 33 -4 56 13 56 42 0 27 -18 46 -42 46 -10 0 -18 7
-18 15 0 10 10 15 30 15 17 0 30 5 30 10 0 6 -18 10 -40 10 -39 0 -40 -1 -40
-35z"/>
<path d="M9338 256 c-16 -24 -28 -46 -28 -50 0 -3 14 -6 30 -6 23 0 30 -4 30
-20 0 -11 7 -20 15 -20 8 0 15 9 15 19 0 11 6 22 13 25 10 5 10 7 0 12 -7 3
-13 23 -13 45 0 54 -27 52 -62 -5z m32 -16 c0 -11 -7 -20 -15 -20 -13 0 -13 3
-3 20 7 11 14 20 15 20 2 0 3 -9 3 -20z"/>
<path d="M9447 282 c-36 -39 -13 -122 33 -122 24 0 53 41 44 63 -7 19 -39 31
-55 21 -7 -4 -10 1 -7 12 2 12 12 19 26 19 29 1 29 19 -1 23 -13 2 -30 -5 -40
-16z m50 -68 c8 -21 -13 -42 -28 -27 -13 13 -5 43 11 43 6 0 13 -7 17 -16z"/>
<path d="M9550 281 c-5 -11 -10 -34 -10 -51 0 -44 17 -70 44 -70 33 0 49 23
49 70 0 22 -6 46 -13 55 -18 21 -57 19 -70 -4z m56 -26 c7 -30 -2 -75 -16 -75
-20 0 -32 44 -21 73 13 34 29 35 37 2z"/>
<path d="M9662 288 c-30 -30 -2 -86 38 -75 17 4 18 2 9 -15 -6 -10 -18 -18
-28 -16 -10 2 -20 -1 -22 -7 -7 -17 48 -17 65 0 19 19 22 95 4 113 -7 7 -21
12 -33 12 -12 0 -26 -5 -33 -12z m49 -24 c10 -13 10 -17 -2 -25 -18 -12 -26
-11 -34 1 -8 13 1 40 13 40 5 0 15 -7 23 -16z"/>
<path d="M9783 293 c-18 -7 -16 -23 2 -23 11 0 15 -12 15 -45 0 -38 -3 -45
-20 -45 -11 0 -20 -4 -20 -10 0 -5 20 -10 45 -10 25 0 45 5 45 10 0 6 -7 10
-15 10 -12 0 -15 13 -15 60 0 60 -5 67 -37 53z"/>
</g>
</svg>
